<mxfile host="app.diagrams.net" modified="2024-03-06T23:25:41.485Z" agent="Mozilla/5.0 (Windows NT 10.0; Win64; x64) AppleWebKit/537.36 (KHTML, like Gecko) Chrome/122.0.0.0 Safari/537.36" etag="TanccJcPCPA_QFQnoBNm" version="23.1.2" type="device">
  <diagram id="R2lEEEUBdFMjLlhIrx00" name="Page-1">
    <mxGraphModel dx="1050" dy="522" grid="1" gridSize="10" guides="1" tooltips="1" connect="1" arrows="1" fold="1" page="1" pageScale="1" pageWidth="850" pageHeight="1100" math="0" shadow="0" extFonts="Permanent Marker^https://fonts.googleapis.com/css?family=Permanent+Marker">
      <root>
        <mxCell id="0" />
        <mxCell id="1" parent="0" />
        <mxCell id="bVq7L-3wxonzTqiYkxYs-1" value="&lt;font style=&quot;font-size: 22px;&quot;&gt;Livro&lt;/font&gt;" style="rounded=1;whiteSpace=wrap;html=1;" parent="1" vertex="1">
          <mxGeometry x="15" y="130" width="220" height="90" as="geometry" />
        </mxCell>
        <mxCell id="bVq7L-3wxonzTqiYkxYs-5" value="" style="endArrow=classic;startArrow=classic;html=1;rounded=0;exitX=1;exitY=0.5;exitDx=0;exitDy=0;entryX=0;entryY=0.5;entryDx=0;entryDy=0;" parent="1" source="bVq7L-3wxonzTqiYkxYs-1" edge="1" target="bVq7L-3wxonzTqiYkxYs-47">
          <mxGeometry width="50" height="50" relative="1" as="geometry">
            <mxPoint x="345" y="265" as="sourcePoint" />
            <mxPoint x="295" y="175" as="targetPoint" />
          </mxGeometry>
        </mxCell>
        <mxCell id="bVq7L-3wxonzTqiYkxYs-7" value="" style="endArrow=classic;startArrow=classic;html=1;rounded=0;entryX=0;entryY=0.5;entryDx=0;entryDy=0;exitX=1;exitY=0.5;exitDx=0;exitDy=0;" parent="1" edge="1" target="bVq7L-3wxonzTqiYkxYs-9" source="bVq7L-3wxonzTqiYkxYs-47">
          <mxGeometry width="50" height="50" relative="1" as="geometry">
            <mxPoint x="540" y="175" as="sourcePoint" />
            <mxPoint x="610" y="174.5" as="targetPoint" />
          </mxGeometry>
        </mxCell>
        <mxCell id="bVq7L-3wxonzTqiYkxYs-9" value="&lt;font style=&quot;font-size: 22px;&quot;&gt;Autor&lt;/font&gt;" style="rounded=1;whiteSpace=wrap;html=1;" parent="1" vertex="1">
          <mxGeometry x="610" y="130" width="220" height="90" as="geometry" />
        </mxCell>
        <mxCell id="bVq7L-3wxonzTqiYkxYs-12" value="" style="endArrow=none;html=1;rounded=0;entryX=0;entryY=1;entryDx=0;entryDy=0;" parent="1" edge="1">
          <mxGeometry width="50" height="50" relative="1" as="geometry">
            <mxPoint x="225" y="295" as="sourcePoint" />
            <mxPoint x="225" y="220" as="targetPoint" />
          </mxGeometry>
        </mxCell>
        <mxCell id="bVq7L-3wxonzTqiYkxYs-13" value="" style="endArrow=none;html=1;rounded=0;entryX=0;entryY=1;entryDx=0;entryDy=0;" parent="1" edge="1">
          <mxGeometry width="50" height="50" relative="1" as="geometry">
            <mxPoint x="105" y="295" as="sourcePoint" />
            <mxPoint x="105" y="220" as="targetPoint" />
          </mxGeometry>
        </mxCell>
        <mxCell id="bVq7L-3wxonzTqiYkxYs-14" value="" style="endArrow=none;html=1;rounded=0;entryX=0;entryY=1;entryDx=0;entryDy=0;" parent="1" edge="1">
          <mxGeometry width="50" height="50" relative="1" as="geometry">
            <mxPoint x="145" y="295" as="sourcePoint" />
            <mxPoint x="145" y="220" as="targetPoint" />
          </mxGeometry>
        </mxCell>
        <mxCell id="bVq7L-3wxonzTqiYkxYs-15" value="" style="endArrow=none;html=1;rounded=0;" parent="1" edge="1">
          <mxGeometry width="50" height="50" relative="1" as="geometry">
            <mxPoint x="185" y="295" as="sourcePoint" />
            <mxPoint x="185" y="220" as="targetPoint" />
          </mxGeometry>
        </mxCell>
        <mxCell id="bVq7L-3wxonzTqiYkxYs-17" value="" style="endArrow=none;html=1;rounded=0;entryX=0;entryY=1;entryDx=0;entryDy=0;" parent="1" edge="1">
          <mxGeometry width="50" height="50" relative="1" as="geometry">
            <mxPoint x="25" y="295" as="sourcePoint" />
            <mxPoint x="25" y="220" as="targetPoint" />
          </mxGeometry>
        </mxCell>
        <mxCell id="bVq7L-3wxonzTqiYkxYs-23" value="" style="endArrow=none;html=1;rounded=0;entryX=0;entryY=1;entryDx=0;entryDy=0;" parent="1" edge="1">
          <mxGeometry width="50" height="50" relative="1" as="geometry">
            <mxPoint x="619.5" y="295" as="sourcePoint" />
            <mxPoint x="619.5" y="220" as="targetPoint" />
          </mxGeometry>
        </mxCell>
        <mxCell id="bVq7L-3wxonzTqiYkxYs-24" value="" style="ellipse;whiteSpace=wrap;html=1;aspect=fixed;fillColor=#60a917;strokeColor=#2D7600;fontColor=#ffffff;" parent="1" vertex="1">
          <mxGeometry x="15" y="295" width="20" height="20" as="geometry" />
        </mxCell>
        <mxCell id="bVq7L-3wxonzTqiYkxYs-26" value="" style="ellipse;whiteSpace=wrap;html=1;aspect=fixed;" parent="1" vertex="1">
          <mxGeometry x="95" y="295" width="20" height="20" as="geometry" />
        </mxCell>
        <mxCell id="bVq7L-3wxonzTqiYkxYs-27" value="" style="ellipse;whiteSpace=wrap;html=1;aspect=fixed;" parent="1" vertex="1">
          <mxGeometry x="135" y="295" width="20" height="20" as="geometry" />
        </mxCell>
        <mxCell id="bVq7L-3wxonzTqiYkxYs-28" value="" style="ellipse;whiteSpace=wrap;html=1;aspect=fixed;" parent="1" vertex="1">
          <mxGeometry x="175" y="295" width="20" height="20" as="geometry" />
        </mxCell>
        <mxCell id="bVq7L-3wxonzTqiYkxYs-29" value="" style="ellipse;whiteSpace=wrap;html=1;aspect=fixed;" parent="1" vertex="1">
          <mxGeometry x="215" y="295" width="20" height="20" as="geometry" />
        </mxCell>
        <mxCell id="bVq7L-3wxonzTqiYkxYs-31" value="" style="ellipse;whiteSpace=wrap;html=1;aspect=fixed;fillColor=#fa6800;fontColor=#000000;strokeColor=#C73500;" parent="1" vertex="1">
          <mxGeometry x="610" y="295" width="20" height="20" as="geometry" />
        </mxCell>
        <mxCell id="bVq7L-3wxonzTqiYkxYs-40" value="&lt;font style=&quot;font-size: 14px;&quot;&gt;Book ID (PK)&lt;/font&gt;" style="text;html=1;strokeColor=none;fillColor=none;align=left;verticalAlign=middle;whiteSpace=wrap;rounded=0;rotation=90;" parent="1" vertex="1">
          <mxGeometry x="-30" y="360" width="110" height="30" as="geometry" />
        </mxCell>
        <mxCell id="bVq7L-3wxonzTqiYkxYs-43" value="&lt;font style=&quot;font-size: 14px;&quot;&gt;Título&lt;br&gt;&lt;/font&gt;" style="text;html=1;strokeColor=none;fillColor=none;align=left;verticalAlign=middle;whiteSpace=wrap;rounded=0;rotation=90;" parent="1" vertex="1">
          <mxGeometry x="50" y="360" width="110" height="30" as="geometry" />
        </mxCell>
        <mxCell id="bVq7L-3wxonzTqiYkxYs-44" value="&lt;font style=&quot;font-size: 14px;&quot;&gt;ISBN&lt;/font&gt;" style="text;html=1;strokeColor=none;fillColor=none;align=left;verticalAlign=middle;whiteSpace=wrap;rounded=0;rotation=90;" parent="1" vertex="1">
          <mxGeometry x="90" y="360" width="110" height="30" as="geometry" />
        </mxCell>
        <mxCell id="bVq7L-3wxonzTqiYkxYs-45" value="&lt;font style=&quot;font-size: 14px;&quot;&gt;Editora&lt;br&gt;&lt;/font&gt;" style="text;html=1;strokeColor=none;fillColor=none;align=left;verticalAlign=middle;whiteSpace=wrap;rounded=0;rotation=90;" parent="1" vertex="1">
          <mxGeometry x="130" y="360" width="110" height="30" as="geometry" />
        </mxCell>
        <mxCell id="bVq7L-3wxonzTqiYkxYs-46" value="&lt;font style=&quot;font-size: 14px;&quot;&gt;Ano de Publicação&lt;/font&gt;" style="text;html=1;strokeColor=none;fillColor=none;align=left;verticalAlign=middle;whiteSpace=wrap;rounded=0;rotation=90;" parent="1" vertex="1">
          <mxGeometry x="160" y="370" width="130" height="30" as="geometry" />
        </mxCell>
        <mxCell id="bVq7L-3wxonzTqiYkxYs-47" value="&lt;span style=&quot;font-size: 22px;&quot;&gt;Autoria&lt;/span&gt;" style="rounded=1;whiteSpace=wrap;html=1;" parent="1" vertex="1">
          <mxGeometry x="315" y="130" width="220" height="90" as="geometry" />
        </mxCell>
        <mxCell id="bVq7L-3wxonzTqiYkxYs-60" value="&lt;font style=&quot;font-size: 14px;&quot;&gt;ID autor (PK)&lt;/font&gt;" style="text;html=1;strokeColor=none;fillColor=none;align=left;verticalAlign=middle;whiteSpace=wrap;rounded=0;rotation=90;" parent="1" vertex="1">
          <mxGeometry x="565" y="360" width="110" height="30" as="geometry" />
        </mxCell>
        <mxCell id="bVq7L-3wxonzTqiYkxYs-66" value="" style="endArrow=none;html=1;rounded=0;entryX=0;entryY=1;entryDx=0;entryDy=0;" parent="1" edge="1">
          <mxGeometry width="50" height="50" relative="1" as="geometry">
            <mxPoint x="704.5" y="295" as="sourcePoint" />
            <mxPoint x="704.5" y="220" as="targetPoint" />
          </mxGeometry>
        </mxCell>
        <mxCell id="bVq7L-3wxonzTqiYkxYs-67" value="" style="ellipse;whiteSpace=wrap;html=1;aspect=fixed;" parent="1" vertex="1">
          <mxGeometry x="695" y="295" width="20" height="20" as="geometry" />
        </mxCell>
        <mxCell id="bVq7L-3wxonzTqiYkxYs-68" value="&lt;font style=&quot;font-size: 14px;&quot;&gt;Nome Autor&lt;/font&gt;" style="text;html=1;strokeColor=none;fillColor=none;align=left;verticalAlign=middle;whiteSpace=wrap;rounded=0;rotation=90;" parent="1" vertex="1">
          <mxGeometry x="650" y="360" width="110" height="30" as="geometry" />
        </mxCell>
        <mxCell id="bVq7L-3wxonzTqiYkxYs-72" value="" style="endArrow=none;html=1;rounded=0;entryX=0;entryY=1;entryDx=0;entryDy=0;" parent="1" edge="1">
          <mxGeometry width="50" height="50" relative="1" as="geometry">
            <mxPoint x="454.5" y="295" as="sourcePoint" />
            <mxPoint x="454.5" y="220" as="targetPoint" />
          </mxGeometry>
        </mxCell>
        <mxCell id="bVq7L-3wxonzTqiYkxYs-73" value="" style="ellipse;whiteSpace=wrap;html=1;aspect=fixed;fillColor=#e5f5c2;strokeColor=#36393d;" parent="1" vertex="1">
          <mxGeometry x="445" y="295" width="20" height="20" as="geometry" />
        </mxCell>
        <mxCell id="bVq7L-3wxonzTqiYkxYs-74" value="&lt;font style=&quot;font-size: 14px;&quot;&gt;Book ID (FK)&lt;/font&gt;" style="text;html=1;strokeColor=none;fillColor=none;align=left;verticalAlign=middle;whiteSpace=wrap;rounded=0;rotation=90;" parent="1" vertex="1">
          <mxGeometry x="400" y="360" width="110" height="30" as="geometry" />
        </mxCell>
        <mxCell id="bVq7L-3wxonzTqiYkxYs-76" value="" style="endArrow=none;html=1;rounded=0;entryX=0;entryY=1;entryDx=0;entryDy=0;" parent="1" edge="1">
          <mxGeometry width="50" height="50" relative="1" as="geometry">
            <mxPoint x="385" y="295" as="sourcePoint" />
            <mxPoint x="385" y="220" as="targetPoint" />
          </mxGeometry>
        </mxCell>
        <mxCell id="bVq7L-3wxonzTqiYkxYs-77" value="" style="ellipse;whiteSpace=wrap;html=1;aspect=fixed;fillColor=#fff2cc;strokeColor=#d6b656;" parent="1" vertex="1">
          <mxGeometry x="375" y="295" width="20" height="20" as="geometry" />
        </mxCell>
        <mxCell id="bVq7L-3wxonzTqiYkxYs-78" value="&lt;font style=&quot;font-size: 14px;&quot;&gt;ID autor (FK)&lt;/font&gt;" style="text;html=1;strokeColor=none;fillColor=none;align=left;verticalAlign=middle;whiteSpace=wrap;rounded=0;rotation=90;" parent="1" vertex="1">
          <mxGeometry x="330" y="360" width="110" height="30" as="geometry" />
        </mxCell>
        <mxCell id="n7HSzXDGf1bfCBXH7K7w-1" value="N" style="text;html=1;align=center;verticalAlign=middle;resizable=0;points=[];autosize=1;strokeColor=none;fillColor=none;" vertex="1" parent="1">
          <mxGeometry x="555" y="128" width="30" height="30" as="geometry" />
        </mxCell>
        <mxCell id="n7HSzXDGf1bfCBXH7K7w-2" value="N" style="text;html=1;align=center;verticalAlign=middle;resizable=0;points=[];autosize=1;strokeColor=none;fillColor=none;" vertex="1" parent="1">
          <mxGeometry x="255" y="128" width="30" height="30" as="geometry" />
        </mxCell>
        <mxCell id="n7HSzXDGf1bfCBXH7K7w-4" value="&lt;font style=&quot;font-size: 22px;&quot;&gt;Autoria&lt;/font&gt;" style="rhombus;whiteSpace=wrap;html=1;" vertex="1" parent="1">
          <mxGeometry x="320" y="130" width="210" height="90" as="geometry" />
        </mxCell>
      </root>
    </mxGraphModel>
  </diagram>
</mxfile>
